<svg id="Team" xmlns="http://www.w3.org/2000/svg" enable-background="new 0 0 48 48" viewBox="0 0 48 48"><path d="M40.7,26.5c1.1-0.8,1.9-2,2.1-3.3c0.1-0.3,0.1-0.7,0.1-1.1c0-1.2-0.4-2.4-1.1-3.3c-1.1-1.4-2.6-2.2-4.4-2.2
		c-0.9,0-1.8,0.2-2.5,0.6c-1.8,0.9-3,2.8-3,4.9c0,0.7,0.1,1.3,0.4,1.9c0.4,1,1.1,1.9,1.9,2.5c-0.4,0.1-0.8,0.3-1.1,0.5
		c-1.5-1.5-3.4-2.6-5.5-3.2c1.6-1,2.8-2.6,3.2-4.5c0.1-0.4,0.1-0.9,0.1-1.3c0-1.5-0.5-3-1.4-4.2C28.1,12,26.2,11,24,11
		c-1.1,0-2.2,0.3-3.1,0.8c-2.3,1.2-3.7,3.5-3.7,6.1c0,0.8,0.1,1.6,0.4,2.4c0.5,1.5,1.6,2.6,2.9,3.4c-2.1,0.6-3.9,1.7-5.5,3.2
		c-0.4-0.2-0.7-0.3-1.1-0.5c1.1-0.8,1.9-2,2.2-3.3c0.1-0.3,0.1-0.7,0.1-1.1c0-1.2-0.4-2.4-1.1-3.3c-1.1-1.4-2.6-2.2-4.4-2.2
		c-0.9,0-1.8,0.2-2.5,0.6c-1.8,0.9-3,2.8-3,4.9c0,0.7,0.1,1.3,0.4,1.9c0.4,1,1.1,1.9,1.9,2.5c-4,1.4-6.8,5.1-6.8,9.5v1h10.7h2h21.7
		h2h10.7v-1C47.5,31.6,44.6,27.8,40.7,26.5z M33.9,22c0-1.3,0.7-2.5,1.9-3.1c0.5-0.3,1-0.4,1.6-0.4c1.1,0,2.1,0.5,2.8,1.4
		c0.5,0.6,0.7,1.3,0.7,2.1c0,0.2,0,0.5-0.1,0.7c-0.3,1.6-1.8,2.8-3.5,2.8c-1.5,0-2.8-0.9-3.3-2.3C34,22.9,33.9,22.5,33.9,22z
		 M13.4,34.1c0-0.1,0-0.2,0.1-0.3c0-0.2,0.1-0.4,0.1-0.6c0-0.1,0.1-0.2,0.1-0.4c0.1-0.2,0.1-0.4,0.2-0.5c0-0.1,0.1-0.2,0.1-0.4
		c0.1-0.2,0.1-0.3,0.2-0.5c0.1-0.1,0.1-0.2,0.2-0.4c0.1-0.2,0.2-0.3,0.3-0.5c0.1-0.1,0.1-0.2,0.2-0.3c0.1-0.2,0.2-0.3,0.3-0.5
		c0.1-0.1,0.1-0.2,0.2-0.3c0.2-0.2,0.3-0.4,0.5-0.6c0,0,0,0,0.1-0.1c2-2.3,5-3.6,8.1-3.6c3.1,0,6,1.3,8.1,3.6
		c0.2,0.2,0.4,0.5,0.6,0.7c0.1,0.1,0.1,0.2,0.2,0.3c0.1,0.2,0.2,0.3,0.3,0.5c0.1,0.1,0.1,0.2,0.2,0.3c0.1,0.2,0.2,0.3,0.3,0.5
		c0.1,0.1,0.1,0.2,0.2,0.3c0.1,0.2,0.1,0.3,0.2,0.5c0,0.1,0.1,0.2,0.1,0.4c0.1,0.2,0.1,0.4,0.2,0.5c0,0.1,0.1,0.2,0.1,0.3
		c0.1,0.2,0.1,0.4,0.1,0.6c0,0.1,0,0.2,0.1,0.3c0.1,0.3,0.1,0.6,0.1,0.9H13.2C13.3,34.7,13.3,34.4,13.4,34.1z M19.1,17.9
		c0-1.8,1-3.5,2.6-4.3c0.7-0.4,1.4-0.5,2.2-0.5c1.5,0,2.9,0.7,3.9,1.9c0.7,0.8,1,1.9,1,2.9c0,0.3,0,0.7-0.1,1
		c-0.5,2.3-2.5,3.9-4.8,3.9c-2,0-3.8-1.3-4.6-3.2C19.2,19,19.1,18.4,19.1,17.9z M7.1,22c0-1.3,0.7-2.5,1.9-3.1
		c0.5-0.3,1-0.4,1.6-0.4c1.1,0,2.1,0.5,2.8,1.4c0.5,0.6,0.7,1.3,0.7,2.1c0,0.2,0,0.5-0.1,0.7c-0.3,1.6-1.8,2.8-3.5,2.8
		c-1.5,0-2.8-0.9-3.3-2.3C7.2,22.9,7.1,22.5,7.1,22z M2.6,35c0.5-4,3.9-7.1,8-7.1c1,0,2.1,0.2,3,0.6c-0.2,0.3-0.4,0.5-0.5,0.8
		c0,0.1-0.1,0.1-0.1,0.2c-0.1,0.2-0.3,0.5-0.4,0.7c0,0.1-0.1,0.2-0.1,0.3c-0.1,0.2-0.2,0.5-0.3,0.8c0,0.1-0.1,0.1-0.1,0.2
		c-0.1,0.3-0.2,0.7-0.3,1c0,0.1,0,0.2-0.1,0.2c-0.1,0.3-0.1,0.5-0.2,0.8c0,0.1,0,0.2-0.1,0.3c0,0.3-0.1,0.5-0.1,0.8
		c0,0.1,0,0.2,0,0.3c0,0,0,0.1,0,0.1H2.6z M36.8,35C36.8,35,36.8,34.9,36.8,35c0-0.2,0-0.3,0-0.4c0-0.3-0.1-0.5-0.1-0.8
		c0-0.1,0-0.2-0.1-0.3c-0.1-0.3-0.1-0.5-0.2-0.8c0-0.1,0-0.2-0.1-0.2c-0.1-0.3-0.2-0.7-0.3-1c0-0.1-0.1-0.2-0.1-0.2
		c-0.1-0.2-0.2-0.5-0.3-0.7c0-0.1-0.1-0.2-0.2-0.3c-0.1-0.2-0.2-0.5-0.4-0.7c0-0.1-0.1-0.2-0.1-0.2c-0.2-0.3-0.3-0.5-0.5-0.8
		c1-0.4,2-0.6,3-0.6c4.1,0,7.5,3.1,8,7.1H36.8z"/></svg>