<svg id="svg" xmlns="http://www.w3.org/2000/svg" xmlns:xlink="http://www.w3.org/1999/xlink" width="400" height="321.98581560283685" viewBox="0, 0, 400,321.98581560283685"><g id="svgg"><path id="path0" d="M84.397 152.243 L 19.149 282.979 10.993 287.788 C -4.344 296.830,-2.048 297.872,33.207 297.872 L 63.578 297.872 66.895 293.863 C 68.720 291.658,73.700 282.721,77.963 274.005 L 85.713 258.156 116.143 258.156 L 146.573 258.156 155.605 263.121 C 171.596 271.910,172.733 270.475,164.596 251.773 C 162.101 246.037,158.865 229.714,158.865 222.859 C 158.865 210.993,157.683 210.634,120.913 211.337 C 113.471 211.479,110.418 211.006,109.891 209.631 C 109.241 207.938,124.816 172.210,140.677 139.007 C 153.070 113.065,152.944 113.753,153.203 70.522 C 153.503 20.498,153.530 21.255,151.418 21.392 C 150.443 21.455,120.284 80.338,84.397 152.243 M167.897 32.326 C 167.326 68.630,167.441 212.155,168.043 214.053 C 168.442 215.308,169.667 222.743,170.766 230.575 C 174.288 255.672,185.032 270.783,202.837 275.682 C 213.839 278.709,224.327 284.483,234.331 293.023 C 239.171 297.154,243.012 299.291,245.597 299.291 L 249.520 299.291 249.300 288.298 C 249.053 275.984,251.920 267.928,261.514 253.980 C 267.813 244.824,267.984 241.744,262.372 238.587 C 258.105 236.186,257.662 235.254,256.073 225.320 C 254.923 218.138,252.853 216.756,246.054 218.633 C 236.441 221.288,223.785 218.087,216.084 211.053 L 213.019 208.254 212.078 217.248 C 210.100 236.140,215.939 255.601,226.510 265.344 C 234.266 272.494,233.684 273.618,224.620 268.996 C 220.831 267.063,214.539 264.760,210.638 263.877 C 191.147 259.466,181.808 239.649,183.403 206.086 C 184.364 185.846,183.302 186.697,200.341 192.534 C 214.756 197.473,220.495 200.975,222.014 205.761 C 223.427 210.216,232.184 213.236,240.292 212.065 C 255.291 209.899,258.309 211.523,261.835 223.653 C 268.000 244.857,276.894 238.996,296.299 200.943 C 312.554 169.068,325.630 152.986,345.932 139.898 C 369.132 124.942,400.140 85.728,394.315 78.709 C 391.105 74.842,374.303 70.801,356.028 69.501 C 336.963 68.146,331.499 66.957,324.000 62.533 L 319.194 59.697 311.725 67.654 C 292.259 88.391,288.700 88.333,253.337 66.704 C 244.675 61.406,221.947 49.043,202.829 39.231 L 168.069 21.390 167.897 32.326 M256.490 77.027 C 287.122 96.149,292.803 96.305,311.636 78.543 C 318.061 72.484,319.913 73.051,319.658 81.001 C 318.993 101.759,296.033 136.232,289.526 126.242 C 283.054 116.305,262.978 92.915,248.380 78.304 C 239.324 69.240,232.872 62.392,234.043 63.084 C 235.213 63.777,245.314 70.051,256.490 77.027 M188.295 135.816 C 206.710 156.694,222.409 187.979,213.121 185.288 C 211.755 184.892,205.175 182.933,198.498 180.933 L 186.357 177.299 184.510 164.181 C 183.494 156.967,181.457 146.334,179.984 140.553 C 175.454 122.781,176.349 122.272,188.295 135.816 " stroke="none" fill="#000000" fill-rule="evenodd"></path></g></svg>